<svg width="71" height="50" viewBox="0 0 71 50" fill="none" xmlns="http://www.w3.org/2000/svg">
<g clip-path="url(#clip0_704_4660)" filter="url(#filter0_d_704_4660)">
<path d="M4 5.25C4 2.35051 6.35051 0 9.25 0H61.75C64.6495 0 67 2.35051 67 5.25V36.75C67 39.6495 64.6495 42 61.75 42H9.25C6.3505 42 4 39.6495 4 36.75V5.25Z" fill="#D4DEF7"/>
<path d="M50.4923 12.9554L49.2733 15.6426H51.718L50.4923 12.9554ZM36.4261 14.6206C36.6559 14.5115 36.7912 14.2743 36.7912 13.9797C36.7912 13.6911 36.649 13.482 36.4193 13.3838C36.21 13.2749 35.8881 13.2623 35.5794 13.2623H33.3985V14.7595H35.5501C35.8947 14.7596 36.1826 14.755 36.4261 14.6206ZM8.48174 12.9554L7.27656 15.6426H9.69419L8.48174 12.9554ZM64.5933 30.1704H61.1732V28.7246H64.5795C64.9172 28.7246 65.1537 28.6843 65.2961 28.5576C65.4308 28.4446 65.5069 28.2849 65.5055 28.118C65.5055 27.9215 65.4197 27.7655 65.289 27.6722C65.1608 27.5692 64.9735 27.5224 64.665 27.5224C63.0021 27.471 60.9275 27.5691 60.9275 25.4355C60.9275 24.4577 61.6101 23.4283 63.4686 23.4283H66.9964V22.0868H63.7188C62.7296 22.0868 62.0109 22.3023 61.5022 22.6376V22.0868H56.6541C55.879 22.0868 54.969 22.2616 54.5386 22.6376V22.0868H45.8808V22.6376C45.1919 22.1853 44.0291 22.0868 43.4928 22.0868H37.7821V22.6376C37.2372 22.1573 36.0247 22.0868 35.2862 22.0868H28.895L27.4327 23.5267L26.0629 22.0868H16.5158V31.4954H25.8828L27.3896 30.0324L28.8091 31.4954L34.583 31.5V29.2868H35.1508C35.9168 29.2979 36.8203 29.2696 37.6177 28.9561V31.4951H42.3801V29.0428H42.6098C42.9029 29.0428 42.9319 29.054 42.9319 29.3205V31.4946H57.3996C58.3182 31.4946 59.2784 31.2809 59.8099 30.8923V31.4946H64.3991C65.354 31.4946 66.2866 31.3728 66.9962 31.061V29.3084C66.5662 29.8807 65.7275 30.1708 64.5932 30.1708L64.5933 30.1704ZM35.2266 27.9489H33.0167V30.2104H29.5744L27.3936 27.9785L25.1273 30.2104H18.1121V23.4681H25.2353L27.4141 25.6782L29.6668 23.4681H35.326C36.7315 23.4681 38.3106 23.8221 38.3106 25.6893C38.3106 27.5623 36.7747 27.9489 35.2266 27.9489ZM45.8529 27.6432C46.103 27.9723 46.1391 28.2795 46.1464 28.8738V30.2104H44.3681V29.367C44.3681 28.9613 44.4112 28.3607 44.0819 28.0472C43.8234 27.8058 43.4288 27.7481 42.7824 27.7481H40.8898V30.2104H39.1103V23.4681H43.199C44.0959 23.4681 44.7488 23.5044 45.33 23.7863C45.889 24.0935 46.2407 24.5144 46.2407 25.2835C46.2406 26.3596 45.4517 26.9085 44.9855 27.0773C45.3795 27.2095 45.7016 27.4468 45.8529 27.6432ZM53.1687 24.8625H49.0214V26.0882H53.0673V27.4639H49.0214V28.8054L53.1687 28.8113V30.2104H47.2577V23.4681H53.1687V24.8625ZM57.7197 30.2103H54.2703V28.7645H57.7059C58.0419 28.7645 58.2801 28.7241 58.4294 28.5974C58.5511 28.4932 58.6387 28.3416 58.6387 28.158C58.6387 27.9614 58.5438 27.8054 58.4225 27.7118C58.287 27.609 58.1 27.5625 57.7918 27.5625C56.1355 27.5108 54.0613 27.6089 54.0613 25.4755C54.0613 24.4975 54.7368 23.4681 56.5935 23.4681H60.1442V24.903H56.8951C56.5731 24.903 56.3638 24.9142 56.1857 25.0251C55.9915 25.1343 55.9196 25.2962 55.9196 25.5099C55.9196 25.7642 56.0844 25.9374 56.307 26.0122C56.4939 26.0713 56.6945 26.0885 56.9963 26.0885L57.9498 26.1122C58.9109 26.1332 59.5711 26.2848 59.9723 26.6543C60.3168 26.9789 60.502 27.3889 60.502 28.0827C60.5019 29.5332 59.5057 30.2103 57.7197 30.2103ZM43.9837 24.9712C43.7698 24.8556 43.454 24.8494 43.1388 24.8494H40.9579V26.3636H43.1096C43.4541 26.3636 43.7471 26.3525 43.9837 26.2247C44.2133 26.0984 44.3507 25.8659 44.3507 25.5775C44.3507 25.2892 44.2133 25.0804 43.9837 24.9712ZM63.7718 24.8493C63.4497 24.8493 63.2354 24.8604 63.0551 24.9711C62.8682 25.0804 62.7965 25.2423 62.7965 25.4562C62.7965 25.7104 62.9543 25.8835 63.1837 25.9585C63.3707 26.0176 63.5711 26.0349 63.8661 26.0349L64.8262 26.0581C65.7947 26.08 66.4415 26.2316 66.8357 26.6011C66.9075 26.6523 66.9506 26.71 67 26.7678V24.8494H63.772L63.7718 24.8493ZM35.2879 24.8493H32.9787V26.5665H35.2674C35.9478 26.5665 36.371 26.2593 36.3713 25.676C36.371 25.0864 35.9273 24.8493 35.2879 24.8493ZM19.876 24.8493V26.0751H23.764V27.4508H19.876V28.7922H24.2303L26.2534 26.8142L24.3162 24.8493H19.876ZM31.2462 29.5642V24.1588L28.5271 26.818L31.2462 29.5642ZM20.0246 18.7392V19.9009H34.8211L34.8142 17.4432H35.1005C35.3011 17.4496 35.3594 17.4664 35.3594 17.7676V19.901H43.0123V19.3288C43.6296 19.6297 44.5895 19.901 45.8529 19.901H49.0724L49.7614 18.4038H51.2891L51.9629 19.901H58.167V18.4788L59.1062 19.9009H64.0781V10.5H59.1579V11.6103L58.469 10.5H53.4202V11.6103L52.7875 10.5H45.9677C44.826 10.5 43.8228 10.6449 43.0122 11.049V10.5H38.3059V11.049C37.79 10.6325 37.0871 10.5 36.3058 10.5H19.1121L17.9585 12.9282L16.7738 10.5H11.3583V11.6103L10.7633 10.5H6.14479L4.00008 14.9699V18.5454L7.17147 11.8046H9.80291L12.8149 18.1867V11.8046H15.7056L18.0233 16.3774L20.1526 11.8046H23.1013V18.5454H21.286L21.2793 13.2661L18.7111 18.5454H17.1561L14.5814 13.2614V18.5454H10.979L10.2985 17.0418H6.611L5.92348 18.5454H4V19.9014H7.02617L7.70844 18.4042H9.23614L9.91664 19.9014H15.8705V18.7566L16.4019 19.9062H19.4927L20.0242 18.7394L20.0246 18.7392ZM43.3408 12.5903C43.9131 12.0523 44.8099 11.8042 46.0303 11.8042H47.7448V13.2486H46.0663C45.4202 13.2486 45.0549 13.336 44.7036 13.648C44.4015 13.9317 44.1944 14.4683 44.1944 15.1748C44.1944 15.897 44.3523 16.4176 44.6813 16.7578C44.954 17.0245 45.4496 17.1054 45.9157 17.1054H46.7114L49.2074 11.8045H51.8609L54.8595 18.1802V11.8045H57.5561L60.6692 16.4991V11.8045H62.4834V18.5451H59.9736L56.6166 13.4858V18.5451H53.0097L52.3206 17.0415H48.6415L47.9729 18.5451H45.9003C45.0395 18.5451 43.9496 18.3719 43.3323 17.7995C42.7098 17.2272 42.3862 16.4519 42.3862 15.2262C42.3859 14.2264 42.5792 13.3125 43.3408 12.5903ZM39.6979 11.8043H41.505V18.5451H39.6979V11.8043ZM31.5506 11.8043H35.624C36.5289 11.8043 37.1961 11.8262 37.7687 12.1272C38.329 12.4283 38.6649 12.8679 38.6649 13.6196C38.6649 14.6944 37.8763 15.2496 37.4171 15.4164C37.8045 15.5506 38.1357 15.7877 38.2934 15.984C38.5435 16.3193 38.5865 16.6188 38.5865 17.2207V18.545H36.8003L36.7936 17.6949C36.7936 17.2892 36.8362 16.7059 36.514 16.3818C36.2553 16.1448 35.8608 16.0932 35.2231 16.0932H33.3219V18.5451H31.5508L31.5506 11.8043ZM24.411 11.8043H30.3274V13.208H26.1822V14.423H30.2279V15.8048H26.1822V17.1509H30.3274V18.545H24.411V11.8043Z" fill="#2557D6"/>
</g>
<defs>
<filter id="filter0_d_704_4660" x="0" y="0" width="71" height="50" filterUnits="userSpaceOnUse" color-interpolation-filters="sRGB">
<feFlood flood-opacity="0" result="BackgroundImageFix"/>
<feColorMatrix in="SourceAlpha" type="matrix" values="0 0 0 0 0 0 0 0 0 0 0 0 0 0 0 0 0 0 127 0" result="hardAlpha"/>
<feOffset dy="4"/>
<feGaussianBlur stdDeviation="2"/>
<feComposite in2="hardAlpha" operator="out"/>
<feColorMatrix type="matrix" values="0 0 0 0 0 0 0 0 0 0 0 0 0 0 0 0 0 0 0.25 0"/>
<feBlend mode="normal" in2="BackgroundImageFix" result="effect1_dropShadow_704_4660"/>
<feBlend mode="normal" in="SourceGraphic" in2="effect1_dropShadow_704_4660" result="shape"/>
</filter>
<clipPath id="clip0_704_4660">
<rect width="63" height="42" fill="white" transform="translate(4)"/>
</clipPath>
</defs>
</svg>
