<svg width="22" height="22" viewBox="0 0 22 22" fill="none" xmlns="http://www.w3.org/2000/svg">
<g id="Group">
<path id="Union" fill-rule="evenodd" clip-rule="evenodd" d="M0.199219 10.5992C0.199219 4.89922 5.09922 0.199219 10.9992 0.199219C16.8992 0.199219 21.7992 4.89922 21.7992 10.5992C21.7992 16.2992 16.8992 20.8992 10.9992 20.8992C10.2992 20.8992 9.59922 20.7992 8.89922 20.6992C8.59922 20.5992 8.39922 20.5992 8.29922 20.5992C8.25348 20.5992 8.18681 20.6411 8.09922 20.6961C7.99532 20.7613 7.86199 20.845 7.69922 20.8992C6.69922 21.4992 5.49922 21.7992 4.29922 21.7992H4.2992C3.8992 21.7992 3.39921 21.7992 2.99922 21.6992C2.69922 21.5992 2.49922 21.3992 2.39922 21.1992C2.29922 20.9992 2.29922 20.6992 2.49922 20.4992C2.89922 19.8992 3.29922 19.1992 3.39922 18.4992C3.49922 18.1992 3.29922 17.8992 3.09922 17.6992C1.19922 15.7992 0.199219 13.1992 0.199219 10.5992ZM9.19922 19.1992C9.79922 19.2992 10.3992 19.3992 10.9992 19.3992C16.0992 19.3992 20.0992 15.3992 20.0992 10.5992C20.0992 5.79922 15.9992 1.79922 10.8992 1.79922C5.79922 1.79922 1.69922 5.69922 1.69922 10.5992C1.69922 12.7992 2.59922 14.9992 4.19922 16.5992C4.79922 17.1992 4.99922 17.9992 4.89922 18.6992C4.79922 19.2992 4.59922 19.7992 4.39922 20.2992C5.29922 20.2992 6.19922 19.9992 6.99922 19.5992C7.1992 19.4992 7.35474 19.4103 7.48437 19.3363L7.48441 19.3363C7.74366 19.1881 7.89922 19.0992 8.09922 19.0992C8.34608 19.0169 8.59294 19.0701 8.95124 19.1472C9.02837 19.1638 9.11066 19.1815 9.19922 19.1992ZM5.99921 10.9992C5.99921 10.3992 6.39921 9.99921 6.99921 9.99921C7.59921 9.99921 7.99921 10.3992 7.99921 10.9992C7.99921 11.5992 7.49921 11.9992 6.99921 11.9992C6.49921 11.9992 5.99921 11.5992 5.99921 10.9992ZM10.9992 9.99921C10.3992 9.99921 9.99921 10.3992 9.99921 10.9992C9.99921 11.5992 10.4992 11.9992 10.9992 11.9992C11.4992 11.9992 11.9992 11.5992 11.9992 10.9992C11.9992 10.3992 11.5992 9.99921 10.9992 9.99921ZM13.9992 10.9992C13.9992 10.3992 14.3992 9.99921 14.9992 9.99921C15.5992 9.99921 15.9992 10.3992 15.9992 10.9992C15.9992 11.5992 15.4992 11.9992 14.9992 11.9992C14.4992 11.9992 13.9992 11.5992 13.9992 10.9992Z" fill="white"/>
</g>
</svg>
