<svg width="24" height="24" viewBox="0 0 24 24" fill="none" xmlns="http://www.w3.org/2000/svg">
<g id="cd-order">
<path id="Vector" d="M20.6008 3.40078C19.0008 1.80078 16.6008 1.80078 12.0008 1.80078C7.30078 1.80078 5.00078 1.80078 3.40078 3.40078C1.80078 5.00078 1.80078 7.30078 1.80078 12.0008C1.80078 16.7008 1.80078 19.0008 3.40078 20.6008C5.00078 22.2008 7.40078 22.2008 12.0008 22.2008C16.7008 22.2008 19.0008 22.2008 20.6008 20.6008C22.2008 19.0008 22.2008 16.6008 22.2008 12.0008C22.2008 7.30078 22.2008 5.00078 20.6008 3.40078ZM4.40078 4.40078C5.60078 3.20078 7.70078 3.20078 12.0008 3.20078C16.3008 3.20078 18.4008 3.20078 19.6008 4.40078C20.8008 5.60078 20.8008 7.70078 20.8008 12.0008C20.8008 12.3008 20.8008 12.5008 20.8008 12.8008H16.6008C15.6008 12.8008 14.6008 13.5008 14.1008 14.7008C13.7008 15.5008 13.0008 15.8008 12.1008 15.8008C11.1008 15.8008 10.4008 15.4008 10.1008 14.7008C9.50078 13.5008 8.60078 12.8008 7.60078 12.8008H3.30078C3.30078 12.6008 3.30078 12.3008 3.30078 12.0008C3.20078 7.70078 3.20078 5.60078 4.40078 4.40078ZM19.6008 19.6008C18.4008 20.8008 16.3008 20.8008 12.0008 20.8008C7.70078 20.8008 5.60078 20.8008 4.40078 19.6008C3.50078 18.7008 3.30078 17.1008 3.20078 14.3008H7.40078C7.90078 14.3008 8.40078 14.8008 8.60078 15.3008C9.20078 16.6008 10.4008 17.3008 12.0008 17.3008C13.5008 17.3008 14.7008 16.6008 15.4008 15.3008C15.6008 14.8008 16.1008 14.3008 16.6008 14.3008H20.8008C20.7008 17.0008 20.5008 18.6008 19.6008 19.6008Z" fill="white"/>
</g>
</svg>
