<svg width="472" height="225" viewBox="0 0 472 225" fill="none" xmlns="http://www.w3.org/2000/svg">
<rect x="5" width="467" height="15" rx="7.5" fill="#124E58"/>
<rect x="5" y="41" width="467" height="15" rx="7.5" fill="#124E58"/>
<rect x="5" y="82" width="318" height="15" rx="7.5" fill="#124E58"/>
<rect y="145" width="318" height="80" rx="40" fill="#124E58"/>
<path fillRule="evenodd" clipRule="evenodd" d="M29.7003 165.629C31.9021 164.345 34.7282 165.089 36.0125 167.291L41 175.84L45.9875 167.291C47.2718 165.089 50.0979 164.345 52.2997 165.629C54.5015 166.914 55.2452 169.74 53.9608 171.941L49.0355 180.385H56.3846C58.9336 180.385 61 182.451 61 185C61 187.549 58.9336 189.615 56.3846 189.615H49.0355L53.9608 198.059C55.2452 200.26 54.5015 203.086 52.2997 204.371C50.0979 205.655 47.2718 204.911 45.9875 202.709L41 194.16L36.0125 202.709C34.7282 204.911 31.9021 205.655 29.7003 204.371C27.4985 203.086 26.7548 200.26 28.0392 198.059L32.9645 189.615H25.6154C23.0664 189.615 21 187.549 21 185C21 182.451 23.0664 180.385 25.6154 180.385H32.9645L28.0392 171.941C26.7548 169.74 27.4985 166.914 29.7003 165.629Z" fill="#0D3D4B"/>
<path fillRule="evenodd" clipRule="evenodd" d="M106.7 165.629C108.902 164.345 111.728 165.089 113.013 167.291L118 175.84L122.987 167.291C124.272 165.089 127.098 164.345 129.3 165.629C131.501 166.914 132.245 169.74 130.961 171.941L126.035 180.385H133.385C135.934 180.385 138 182.451 138 185C138 187.549 135.934 189.615 133.385 189.615H126.035L130.961 198.059C132.245 200.26 131.501 203.086 129.3 204.371C127.098 205.655 124.272 204.911 122.987 202.709L118 194.16L113.013 202.709C111.728 204.911 108.902 205.655 106.7 204.371C104.499 203.086 103.755 200.26 105.039 198.059L109.965 189.615H102.615C100.066 189.615 98 187.549 98 185C98 182.451 100.066 180.385 102.615 180.385H109.965L105.039 171.941C103.755 169.74 104.499 166.914 106.7 165.629Z" fill="#0D3D4B"/>
<path fillRule="evenodd" clipRule="evenodd" d="M183.7 165.629C185.902 164.345 188.728 165.089 190.013 167.291L195 175.84L199.987 167.291C201.272 165.089 204.098 164.345 206.3 165.629C208.501 166.914 209.245 169.74 207.961 171.941L203.035 180.385H210.385C212.934 180.385 215 182.451 215 185C215 187.549 212.934 189.615 210.385 189.615H203.035L207.961 198.059C209.245 200.26 208.501 203.086 206.3 204.371C204.098 205.655 201.272 204.911 199.987 202.709L195 194.16L190.013 202.709C188.728 204.911 185.902 205.655 183.7 204.371C181.499 203.086 180.755 200.26 182.039 198.059L186.965 189.615H179.615C177.066 189.615 175 187.549 175 185C175 182.451 177.066 180.385 179.615 180.385H186.965L182.039 171.941C180.755 169.74 181.499 166.914 183.7 165.629Z" fill="#0D3D4B"/>
<path fillRule="evenodd" clipRule="evenodd" d="M260.7 165.629C262.902 164.345 265.728 165.089 267.013 167.291L272 175.84L276.987 167.291C278.272 165.089 281.098 164.345 283.3 165.629C285.501 166.914 286.245 169.74 284.961 171.941L280.035 180.385H287.385C289.934 180.385 292 182.451 292 185C292 187.549 289.934 189.615 287.385 189.615H280.035L284.961 198.059C286.245 200.26 285.501 203.086 283.3 204.371C281.098 205.655 278.272 204.911 276.987 202.709L272 194.16L267.013 202.709C265.728 204.911 262.902 205.655 260.7 204.371C258.499 203.086 257.755 200.26 259.039 198.059L263.965 189.615H256.615C254.066 189.615 252 187.549 252 185C252 182.451 254.066 180.385 256.615 180.385H263.965L259.039 171.941C257.755 169.74 258.499 166.914 260.7 165.629Z" fill="#0D3D4B"/>
</svg>