<svg width="387" height="383" viewBox="0 0 387 383" fill="none" xmlns="http://www.w3.org/2000/svg">
<path fill-rule="evenodd" clip-rule="evenodd" d="M191 84.5833C157.633 84.5833 130.583 111.633 130.583 145C130.583 178.367 157.633 205.417 191 205.417C224.367 205.417 251.417 178.367 251.417 145C251.417 111.633 224.367 84.5833 191 84.5833ZM116.083 145C116.083 103.625 149.625 70.0833 191 70.0833C232.376 70.0833 265.917 103.625 265.917 145C265.917 186.375 232.376 219.917 191 219.917C149.625 219.917 116.083 186.375 116.083 145Z" fill="#124E58"/>
<path fill-rule="evenodd" clip-rule="evenodd" d="M140.25 62.8333C140.25 34.8049 162.972 12.0833 191 12.0833C219.029 12.0833 241.75 34.8049 241.75 62.8333V91.8333C241.75 95.8374 238.504 99.0833 234.5 99.0833C230.496 99.0833 227.25 95.8374 227.25 91.8333V62.8333C227.25 42.813 211.02 26.5833 191 26.5833C170.98 26.5833 154.75 42.813 154.75 62.8333V91.8333C154.75 95.8374 151.504 99.0833 147.5 99.0833C143.496 99.0833 140.25 95.8374 140.25 91.8333V62.8333Z" fill="#124E58"/>
<path fill-rule="evenodd" clip-rule="evenodd" d="M181.333 145C181.333 139.661 185.661 135.333 191 135.333H191.087C196.426 135.333 200.754 139.661 200.754 145C200.754 150.339 196.426 154.667 191.087 154.667H191C185.661 154.667 181.333 150.339 181.333 145Z" fill="#124E58"/>
<rect y="286" width="387" height="15" rx="7.5" fill="#124E58"/>
<rect y="327" width="387" height="15" rx="7.5" fill="#124E58"/>
<rect x="62" y="368" width="264" height="15" rx="7.5" fill="#124E58"/>
</svg>
