<svg width="68" height="68" viewBox="0 0 68 68" fill="none" xmlns="http://www.w3.org/2000/svg">
<g clip-path="url(#clip0_105_54)">
<path d="M68 34C68 15.2223 52.7777 0 34 0C15.2223 0 0 15.2223 0 34C0 52.7777 15.2223 68 34 68C52.7777 68 68 52.7777 68 34Z" fill="white" fill-opacity="0.5"/>
<path d="M58 34C58 20.7452 47.2548 10 34 10C20.7452 10 10 20.7452 10 34C10 47.2548 20.7452 58 34 58C47.2548 58 58 47.2548 58 34Z" fill="white"/>
</g>
<path d="M28 25C26.3431 25 25 26.3431 25 28V40C25 41.6569 26.3431 43 28 43V43C29.6569 43 31 41.6569 31 40V28C31 26.3431 29.6569 25 28 25V25ZM40 25C38.3431 25 37 26.3431 37 28V40C37 41.6569 38.3431 43 40 43V43C41.6569 43 43 41.6569 43 40V28C43 26.3431 41.6569 25 40 25V25Z" fill="#0D3D4B"/>
<defs>
<clipPath id="clip0_105_54">
<rect width="68" height="68" fill="white"/>
</clipPath>
</defs>
</svg>
