<svg width="71" height="50" viewBox="0 0 71 50" fill="none" xmlns="http://www.w3.org/2000/svg">
<g clip-path="url(#clip0_704_4674)" filter="url(#filter0_d_704_4674)">
<path d="M4 5.25C4 2.35051 6.35051 0 9.25 0H61.75C64.6495 0 67 2.35051 67 5.25V36.75C67 39.6495 64.6495 42 61.75 42H9.25C6.3505 42 4 39.6495 4 36.75V5.25Z" fill="#CCDEFF"/>
<path d="M18.1367 15.1166C17.4787 14.6642 16.62 14.4375 15.5606 14.4375H11.4595C11.1347 14.4375 10.9553 14.5999 10.9212 14.9244L9.25523 25.3822C9.23791 25.4849 9.26361 25.5789 9.33209 25.6643C9.40017 25.7498 9.48581 25.7924 9.58836 25.7924H11.5364C11.8781 25.7924 12.0659 25.6304 12.1003 25.3054L12.5617 22.486C12.5785 22.3494 12.6386 22.2383 12.7411 22.1528C12.8436 22.0674 12.9718 22.0115 13.1256 21.9859C13.2794 21.9606 13.4244 21.9477 13.5614 21.9477C13.6979 21.9477 13.8602 21.9564 14.0485 21.9734C14.2363 21.9904 14.356 21.9988 14.4073 21.9988C15.8768 21.9988 17.0302 21.5847 17.8677 20.7557C18.7047 19.9271 19.1237 18.778 19.1237 17.3081C19.1237 16.2999 18.7944 15.5695 18.1367 15.1164V15.1166ZM16.0222 18.2568C15.9365 18.855 15.7146 19.2478 15.3558 19.4358C14.9968 19.6241 14.4842 19.7178 13.8179 19.7178L12.972 19.7433L13.4078 17.0006C13.4418 16.8128 13.5528 16.7188 13.7409 16.7188H14.2281C14.9113 16.7188 15.4072 16.8173 15.7147 17.0135C16.0222 17.2101 16.1247 17.6247 16.0222 18.2568Z" fill="#003087"/>
<path d="M61.4163 14.4375H59.5198C59.3312 14.4375 59.2203 14.5315 59.1865 14.7196L57.5203 25.3827L57.4946 25.4339C57.4946 25.5198 57.5288 25.6006 57.5973 25.6775C57.6653 25.7543 57.7511 25.7928 57.8535 25.7928H59.5455C59.8697 25.7928 60.0491 25.6307 60.0839 25.3058L61.7498 14.8222V14.7967C61.7498 14.5574 61.6383 14.4378 61.4163 14.4378V14.4375Z" fill="#009CDE"/>
<path d="M38.5014 18.5639C38.5014 18.4787 38.4671 18.3973 38.3991 18.3206C38.3306 18.2438 38.2537 18.2051 38.1684 18.2051H36.1947C36.0064 18.2051 35.8526 18.2909 35.7332 18.4614L33.0162 22.4601L31.8884 18.6153C31.8026 18.3421 31.6148 18.2051 31.3246 18.2051H29.4018C29.3162 18.2051 29.2393 18.2436 29.1714 18.3206C29.1029 18.3973 29.0688 18.4788 29.0688 18.5639C29.0688 18.5983 29.2355 19.1022 29.5686 20.0762C29.9018 21.0506 30.2606 22.1015 30.6451 23.2294C31.0297 24.3571 31.2303 24.9555 31.2475 25.0232C29.8461 26.9374 29.1458 27.9627 29.1458 28.0992C29.1458 28.3215 29.2566 28.4325 29.479 28.4325H31.4527C31.6405 28.4325 31.7943 28.3472 31.9141 28.1763L38.4505 18.7432C38.4844 18.7094 38.5014 18.6499 38.5014 18.5638V18.5639Z" fill="#003087"/>
<path d="M56.8801 18.2068H54.932C54.6925 18.2068 54.5478 18.4888 54.4965 19.0528C54.0516 18.3695 53.2405 18.0273 52.0611 18.0273C50.8309 18.0273 49.7841 18.4888 48.9213 19.4116C48.0583 20.3344 47.627 21.4198 47.627 22.6671C47.627 23.6755 47.9217 24.4786 48.5111 25.0764C49.1007 25.6749 49.8909 25.9736 50.8823 25.9736C51.3778 25.9736 51.8819 25.8709 52.3945 25.666C52.9071 25.461 53.3083 25.1877 53.5994 24.8458C53.5994 24.8629 53.5819 24.9396 53.5482 25.0762C53.5136 25.2132 53.4968 25.316 53.4968 25.3838C53.4968 25.6575 53.6075 25.7939 53.83 25.7939H55.5988C55.9231 25.7939 56.1113 25.6318 56.1623 25.3069L57.2134 18.6168C57.2303 18.5142 57.2047 18.4204 57.1365 18.3349C57.0678 18.2496 56.9826 18.2068 56.8801 18.2068ZM53.5351 23.2566C53.0994 23.6838 52.5738 23.8973 51.9587 23.8973C51.463 23.8973 51.0617 23.7608 50.754 23.4872C50.4463 23.2144 50.2925 22.8384 50.2925 22.3594C50.2925 21.7276 50.5061 21.1931 50.9335 20.7574C51.3601 20.3217 51.8903 20.1039 52.5226 20.1039C53.0007 20.1039 53.398 20.2448 53.7145 20.5266C54.0303 20.8087 54.1889 21.1974 54.1889 21.6932C54.1887 22.3083 53.9708 22.8296 53.5351 23.2566Z" fill="#009CDE"/>
<path d="M27.7617 18.2068H25.8136C25.574 18.2068 25.4291 18.4888 25.3778 19.0528C24.9164 18.3695 24.1046 18.0273 22.9427 18.0273C21.7123 18.0273 20.6655 18.4888 19.8027 19.4116C18.9396 20.3344 18.5083 21.4198 18.5083 22.6671C18.5083 23.6755 18.8031 24.4786 19.3927 25.0764C19.9822 25.6749 20.7724 25.9736 21.7636 25.9736C22.2418 25.9736 22.7377 25.8709 23.2503 25.666C23.7629 25.461 24.173 25.1877 24.4806 24.8458C24.4121 25.0507 24.3781 25.2302 24.3781 25.3838C24.3781 25.6575 24.4891 25.7939 24.7113 25.7939H26.4799C26.8043 25.7939 26.9925 25.6318 27.0438 25.3069L28.0947 18.6168C28.1115 18.5142 28.086 18.4204 28.0178 18.3349C27.9494 18.2496 27.8641 18.2068 27.7617 18.2068ZM24.4167 23.2693C23.9808 23.6884 23.4466 23.8973 22.8147 23.8973C22.3189 23.8973 21.9216 23.7608 21.6228 23.4872C21.3235 23.2144 21.1741 22.8384 21.1741 22.3594C21.1741 21.7276 21.3876 21.1931 21.815 20.7574C22.2419 20.3217 22.7717 20.1038 23.4042 20.1038C23.8824 20.1038 24.2797 20.2448 24.5962 20.5266C24.9121 20.8087 25.0703 21.1974 25.0703 21.6932C25.0703 22.3254 24.8524 22.8511 24.4167 23.2693Z" fill="#003087"/>
<path d="M47.255 15.1166C46.597 14.6642 45.7386 14.4375 44.679 14.4375H40.6034C40.2616 14.4375 40.0734 14.5999 40.0395 14.9244L38.3734 25.3822C38.3561 25.4849 38.3818 25.5789 38.4503 25.6643C38.5181 25.7498 38.604 25.7924 38.7065 25.7924H40.8083C41.0133 25.7924 41.1499 25.6814 41.2185 25.4592L41.6799 22.486C41.6969 22.3494 41.7567 22.2383 41.8594 22.1527C41.9619 22.0674 42.09 22.0115 42.2439 21.9859C42.3975 21.9606 42.5426 21.9477 42.6796 21.9477C42.8162 21.9477 42.9784 21.9564 43.1665 21.9734C43.3544 21.9904 43.4744 21.9988 43.5254 21.9988C44.9951 21.9988 46.1483 21.5847 46.9858 20.7557C47.8232 19.9271 48.2418 18.778 48.2418 17.3081C48.2419 16.2999 47.9127 15.5694 47.255 15.1164V15.1166ZM44.6278 19.3332C44.2518 19.5895 43.6878 19.7176 42.9361 19.7176L42.1157 19.7433L42.5515 17.0005C42.5853 16.8128 42.6964 16.7186 42.8846 16.7186H43.3459C43.7218 16.7186 44.0208 16.7357 44.2433 16.7698C44.465 16.8041 44.679 16.9108 44.8841 17.0901C45.0892 17.2696 45.1916 17.5303 45.1916 17.8719C45.1916 18.5899 45.0035 19.0767 44.6278 19.3332Z" fill="#009CDE"/>
</g>
<defs>
<filter id="filter0_d_704_4674" x="0" y="0" width="71" height="50" filterUnits="userSpaceOnUse" color-interpolation-filters="sRGB">
<feFlood flood-opacity="0" result="BackgroundImageFix"/>
<feColorMatrix in="SourceAlpha" type="matrix" values="0 0 0 0 0 0 0 0 0 0 0 0 0 0 0 0 0 0 127 0" result="hardAlpha"/>
<feOffset dy="4"/>
<feGaussianBlur stdDeviation="2"/>
<feComposite in2="hardAlpha" operator="out"/>
<feColorMatrix type="matrix" values="0 0 0 0 0 0 0 0 0 0 0 0 0 0 0 0 0 0 0.25 0"/>
<feBlend mode="normal" in2="BackgroundImageFix" result="effect1_dropShadow_704_4674"/>
<feBlend mode="normal" in="SourceGraphic" in2="effect1_dropShadow_704_4674" result="shape"/>
</filter>
<clipPath id="clip0_704_4674">
<rect width="63" height="42" fill="white" transform="translate(4)"/>
</clipPath>
</defs>
</svg>
