<svg width="68" height="68" viewBox="0 0 68 68" fill="none" xmlns="http://www.w3.org/2000/svg">
<rect width="68" height="68" rx="34" fill="white" fill-opacity="0.5"/>
<rect x="10" y="10" width="48" height="48" rx="24" fill="white"/>
<path d="M40.8906 34.846C40.5371 36.189 38.8667 37.138 35.5257 39.0361C32.296 40.8709 30.6812 41.7884 29.3798 41.4196C28.8418 41.2671 28.3516 40.9776 27.9562 40.5787C27 39.6139 27 37.7426 27 34C27 30.2574 27 28.3861 27.9562 27.4213C28.3516 27.0225 28.8418 26.7329 29.3798 26.5804C30.6812 26.2117 32.296 27.1291 35.5257 28.9639C38.8667 30.862 40.5371 31.811 40.8906 33.154C41.0365 33.7084 41.0365 34.2916 40.8906 34.846Z" fill="#0D3D4B"/>
</svg>
