<svg width="86" height="80" viewBox="0 0 86 80" fill="none" xmlns="http://www.w3.org/2000/svg">
<path d="M6.66669 44.7618V26.6665H73.3334V44.7618C73.3334 58.2305 73.3334 64.9648 68.9944 69.1488C64.655 73.3332 57.6714 73.3332 43.7037 73.3332H36.2964C22.3288 73.3332 15.345 73.3332 11.0059 69.1488C6.66669 64.9648 6.66669 58.2305 6.66669 44.7618Z" fill="#CFF6EF"/>
<path fill-rule="evenodd" clip-rule="evenodd" d="M4.16669 26.6665C4.16669 25.2858 5.28598 24.1665 6.66669 24.1665H73.3334C74.7141 24.1665 75.8334 25.2858 75.8334 26.6665V44.9572C75.8334 51.5258 75.8335 56.7197 75.267 60.7823C74.6836 64.9667 73.4569 68.3186 70.7297 70.9485C68.015 73.5661 64.5764 74.7325 60.2811 75.2894C56.0861 75.8333 50.7155 75.8332 43.8873 75.8332H36.1128C29.2846 75.8332 23.914 75.8333 19.719 75.2894C15.4237 74.7325 11.9851 73.5661 9.27049 70.9484C6.54319 68.3186 5.31645 64.9666 4.73304 60.7823C4.16659 56.7197 4.16663 51.5258 4.16669 44.9571L4.16669 26.6665ZM9.16669 29.1665V44.7618C9.16669 51.5694 9.17239 56.4144 9.68513 60.0919C10.1865 63.6878 11.1293 65.795 12.7412 67.3492C14.3658 68.9158 16.5887 69.8417 20.3619 70.3309C24.198 70.8282 29.2444 70.8332 36.2964 70.8332H43.7037C50.7557 70.8332 55.8021 70.8282 59.6382 70.3309C63.4114 69.8417 65.6343 68.9159 67.259 67.3492C68.8708 65.795 69.8136 63.6879 70.3149 60.0919C70.8277 56.4144 70.8334 51.5694 70.8334 44.7618V29.1665H9.16669Z" fill="#124E58"/>
<path fill-rule="evenodd" clip-rule="evenodd" d="M21.0179 9.36179C19.3142 9.54706 18.3125 9.88877 17.5064 10.4261C16.7004 10.9635 15.9997 11.7567 15.1734 13.2581C14.3176 14.8131 13.4433 16.9026 12.1795 19.9357L8.97436 27.628C8.44332 28.9026 6.97963 29.5052 5.70513 28.9742C4.43062 28.4432 3.82793 26.9795 4.35898 25.705L7.56411 18.0127L7.61734 17.8849C8.8149 15.0106 9.79082 12.6683 10.7929 10.8474C11.8394 8.946 13.0197 7.40802 14.7329 6.26589C16.4461 5.12374 18.3198 4.62571 20.4774 4.3911C22.5436 4.16642 25.081 4.16646 28.1946 4.16651H51.8054C54.919 4.16646 57.4565 4.16642 59.5226 4.3911C61.6802 4.62571 63.5538 5.12375 65.2671 6.26586C66.9804 7.40802 68.1607 8.94603 69.2071 10.8474C70.2088 12.6676 71.1844 15.0089 72.3814 17.8816L72.436 18.0126L75.6411 25.705C76.1721 26.9795 75.5694 28.4432 74.2949 28.9742C73.0203 29.5052 71.5567 28.9025 71.0256 27.628L67.8207 19.9358C67.8207 19.9358 67.8207 19.9359 67.8207 19.9358C66.5568 16.9027 65.6824 14.8131 64.8266 13.2581C64.0003 11.7567 63.2997 10.9635 62.4936 10.4262C61.6875 9.88877 60.6858 9.54705 58.9821 9.36179C57.2177 9.16993 54.9526 9.16651 51.6667 9.16651H28.3333C25.0475 9.16651 22.7824 9.16992 21.0179 9.36179Z" fill="#124E58"/>
<path fill-rule="evenodd" clip-rule="evenodd" d="M40 4.1665C41.3807 4.1665 42.5 5.28579 42.5 6.6665V26.6665C42.5 28.0472 41.3807 29.1665 40 29.1665C38.6193 29.1665 37.5 28.0472 37.5 26.6665V6.6665C37.5 5.28579 38.6193 4.1665 40 4.1665Z" fill="#124E58"/>
<path fill-rule="evenodd" clip-rule="evenodd" d="M30.8333 40C30.8333 38.6193 31.9526 37.5 33.3333 37.5H46.6666C48.0474 37.5 49.1666 38.6193 49.1666 40C49.1666 41.3807 48.0474 42.5 46.6666 42.5H33.3333C31.9526 42.5 30.8333 41.3807 30.8333 40Z" fill="#124E58"/>
<path d="M79.3207 36.3332H79.3334H79.3207ZM79.3207 36.3332C78.4904 37.1565 76.9858 36.9514 75.9306 36.9514C74.6354 36.9514 74.0116 37.2048 73.0872 38.1292C72.3002 38.9164 71.245 40.3332 70 40.3332C68.7551 40.3332 67.6999 38.9164 66.9128 38.1292C65.9884 37.2048 65.3647 36.9514 64.0694 36.9514C63.0143 36.9514 61.5096 37.1565 60.6793 36.3332C59.8424 35.5033 60.0484 33.9924 60.0484 32.9304C60.0484 31.5884 59.7549 30.9713 58.7992 30.0156C57.3775 28.594 56.6667 27.883 56.6667 26.9998C56.6667 26.1165 57.3775 25.4057 58.7992 23.9841C59.6523 23.1309 60.0484 22.2855 60.0484 21.0693C60.0484 20.014 59.8433 18.5094 60.6667 17.6791C61.4966 16.8422 63.0075 17.0482 64.0695 17.0482C65.2857 17.0482 66.1311 16.6521 66.9842 15.799C68.4059 14.3773 69.1167 13.6665 70 13.6665C70.8834 13.6665 71.5942 14.3773 73.0158 15.799C73.8687 16.6519 74.714 17.0482 75.9306 17.0482C76.9858 17.0482 78.4906 16.8431 79.3208 17.6665C80.1576 18.4964 79.9516 20.0073 79.9516 21.0693C79.9516 22.4113 80.2452 23.0283 81.2008 23.9841C82.6226 25.4057 83.3334 26.1165 83.3334 26.9998C83.3334 27.883 82.6226 28.594 81.2008 30.0156C80.2451 30.9713 79.9516 31.5884 79.9516 32.9304C79.9516 33.9924 80.1576 35.5033 79.3207 36.3332Z" fill="#22C55E"/>
<path d="M79.3207 36.3332H79.3334M79.3207 36.3332C78.4904 37.1565 76.9858 36.9514 75.9306 36.9514C74.6354 36.9514 74.0116 37.2048 73.0872 38.1292C72.3002 38.9164 71.245 40.3332 70 40.3332C68.7551 40.3332 67.6999 38.9164 66.9128 38.1292C65.9884 37.2048 65.3647 36.9514 64.0694 36.9514C63.0143 36.9514 61.5096 37.1565 60.6793 36.3332C59.8424 35.5033 60.0484 33.9924 60.0484 32.9304C60.0484 31.5884 59.7549 30.9713 58.7992 30.0156C57.3775 28.594 56.6667 27.883 56.6667 26.9998C56.6667 26.1165 57.3775 25.4057 58.7992 23.9841C59.6523 23.1309 60.0484 22.2855 60.0484 21.0693C60.0484 20.014 59.8433 18.5094 60.6667 17.6791C61.4966 16.8422 63.0075 17.0482 64.0695 17.0482C65.2857 17.0482 66.1311 16.6521 66.9842 15.799C68.4059 14.3773 69.1167 13.6665 70 13.6665C70.8834 13.6665 71.5942 14.3773 73.0158 15.799C73.8687 16.6519 74.714 17.0482 75.9306 17.0482C76.9858 17.0482 78.4906 16.8431 79.3208 17.6665C80.1576 18.4964 79.9516 20.0073 79.9516 21.0693C79.9516 22.4113 80.2452 23.0283 81.2008 23.9841C82.6226 25.4057 83.3334 26.1165 83.3334 26.9998C83.3334 27.883 82.6226 28.594 81.2008 30.0156C80.2451 30.9713 79.9516 31.5884 79.9516 32.9304C79.9516 33.9924 80.1576 35.5033 79.3207 36.3332Z" stroke="#22C55E" stroke-width="1.5"/>
<path d="M66 28.1904C66 28.1904 67.6 29.0594 68.4 30.3332C68.4 30.3332 70.8 25.3332 74 23.6665" stroke="white" stroke-width="1.5" stroke-linecap="round" stroke-linejoin="round"/>
</svg>
