<svg width="71" height="50" viewBox="0 0 71 50" fill="none" xmlns="http://www.w3.org/2000/svg">
<g clip-path="url(#clip0_704_4658)" filter="url(#filter0_d_704_4658)">
<path d="M4 5.25C4 2.35051 6.35051 0 9.25 0H61.75C64.6495 0 67 2.35051 67 5.25V36.75C67 39.6495 64.6495 42 61.75 42H9.25C6.3505 42 4 39.6495 4 36.75V5.25Z" fill="#D8E3F3"/>
<path d="M58.2191 13.1719H54.9187C53.9209 13.1719 53.1533 13.4789 52.6928 14.4767L46.3989 28.8298H50.8507C50.8507 28.8298 51.6182 26.9109 51.7717 26.4504C52.2323 26.4504 56.6073 26.4504 57.2213 26.4504C57.3748 26.9877 57.7586 28.753 57.7586 28.753H61.7498L58.2191 13.1719ZM52.9998 23.2267C53.3836 22.3056 54.6884 18.8517 54.6884 18.8517C54.6884 18.9285 55.0722 17.9306 55.2257 17.3934L55.5327 18.7749C55.5327 18.7749 56.377 22.5359 56.5305 23.3035H52.9998V23.2267Z" fill="#3362AB"/>
<path d="M46.7064 23.687C46.7064 26.9107 43.7897 29.0598 39.2612 29.0598C37.3424 29.0598 35.5002 28.6761 34.5024 28.2155L35.1165 24.6848L35.6538 24.9151C37.0353 25.5291 37.9564 25.7594 39.645 25.7594C40.8731 25.7594 42.1779 25.2989 42.1779 24.2243C42.1779 23.5335 41.6406 23.073 39.952 22.3054C38.3402 21.5379 36.191 20.3098 36.191 18.084C36.191 15.0138 39.1845 12.9414 43.4059 12.9414C45.0178 12.9414 46.3994 13.2484 47.2437 13.6322L46.6296 17.0094L46.3226 16.7024C45.5551 16.3954 44.5573 16.0883 43.0989 16.0883C41.4871 16.1651 40.7195 16.8559 40.7195 17.4699C40.7195 18.1607 41.6406 18.698 43.0989 19.3888C45.5551 20.5401 46.7064 21.8449 46.7064 23.687Z" fill="#3362AB"/>
<path d="M9.25 13.3246L9.32675 13.0176H15.9276C16.8487 13.0176 17.5395 13.3246 17.7697 14.3224L19.2281 21.2303C17.7697 17.5461 14.3925 14.5527 9.25 13.3246Z" fill="#F9B50B"/>
<path d="M28.5155 13.1725L21.8379 28.7536H17.3094L13.4717 15.7054C16.2348 17.4707 18.5375 20.2339 19.3818 22.1527L19.8423 23.7646L23.987 13.0957H28.5155V13.1725Z" fill="#3362AB"/>
<path d="M30.2806 13.0957H34.5021L31.8157 28.7536H27.5942L30.2806 13.0957Z" fill="#3362AB"/>
</g>
<defs>
<filter id="filter0_d_704_4658" x="0" y="0" width="71" height="50" filterUnits="userSpaceOnUse" color-interpolation-filters="sRGB">
<feFlood flood-opacity="0" result="BackgroundImageFix"/>
<feColorMatrix in="SourceAlpha" type="matrix" values="0 0 0 0 0 0 0 0 0 0 0 0 0 0 0 0 0 0 127 0" result="hardAlpha"/>
<feOffset dy="4"/>
<feGaussianBlur stdDeviation="2"/>
<feComposite in2="hardAlpha" operator="out"/>
<feColorMatrix type="matrix" values="0 0 0 0 0 0 0 0 0 0 0 0 0 0 0 0 0 0 0.25 0"/>
<feBlend mode="normal" in2="BackgroundImageFix" result="effect1_dropShadow_704_4658"/>
<feBlend mode="normal" in="SourceGraphic" in2="effect1_dropShadow_704_4658" result="shape"/>
</filter>
<clipPath id="clip0_704_4658">
<rect width="63" height="42" fill="white" transform="translate(4)"/>
</clipPath>
</defs>
</svg>
