<svg id="Layer_1" data-name="Layer 1" xmlns="http://www.w3.org/2000/svg" viewBox="0 0 201.14 122.92"><defs><style>.cls-1{fill:#f7f7f7;}.cls-2{fill:#eaeaea;}.cls-3{fill:#d3d3d3;}.cls-4{fill:none;stroke:#ddd;stroke-width:2px;}</style></defs><title>Untitled-2</title><path class="cls-1" d="M281.32,194.5h78.22A61.46,61.46,0,0,1,421,256h0a61.46,61.46,0,0,1-61.46,61.46H281.32A61.46,61.46,0,0,1,219.86,256h0A61.46,61.46,0,0,1,281.32,194.5Z" transform="translate(-219.86 -194.5)"/><path class="cls-2" d="M281.32,202.88h78.22A53.07,53.07,0,0,1,412.62,256h0A53.08,53.08,0,0,1,359.54,309H281.32A53.09,53.09,0,0,1,228.24,256h0A53.08,53.08,0,0,1,281.32,202.88Z" transform="translate(-219.86 -194.5)"/><path class="cls-3" d="M280.56,283.89V233.94H299.2a20.42,20.42,0,0,1,9,1.88,13.88,13.88,0,0,1,6.17,5.37,17.3,17.3,0,0,1-.06,17,14.56,14.56,0,0,1-6.11,5.36,20.42,20.42,0,0,1-9,1.88h-9.52v18.43Zm9.12-26.48h9.65a9.11,9.11,0,0,0,4.29-.94,7.17,7.17,0,0,0,2.82-2.75,7.89,7.89,0,0,0,1-4,7.69,7.69,0,0,0-1-4,6.75,6.75,0,0,0-2.82-2.68,8.67,8.67,0,0,0-4.29-1h-9.65ZM324,283.89V233.94h18.64a20.45,20.45,0,0,1,9,1.88,13.93,13.93,0,0,1,6.17,5.37,17.27,17.27,0,0,1-.07,17,14.53,14.53,0,0,1-6.1,5.36,20.45,20.45,0,0,1-9,1.88h-9.53v18.43Zm9.11-26.48h9.66a9.17,9.17,0,0,0,4.29-.94,7.17,7.17,0,0,0,2.82-2.75,7.89,7.89,0,0,0,1-4,7.69,7.69,0,0,0-1-4A6.75,6.75,0,0,0,347.1,243a8.72,8.72,0,0,0-4.29-1h-9.66Z" transform="translate(-219.86 -194.5)"/><path class="cls-4" d="M281.32,202.88h78.22A53.07,53.07,0,0,1,412.62,256h0A53.08,53.08,0,0,1,359.54,309H281.32A53.09,53.09,0,0,1,228.24,256h0A53.08,53.08,0,0,1,281.32,202.88Z" transform="translate(-219.86 -194.5)"/></svg>