<svg width="400" height="257" viewBox="0 0 400 257" fill="none" xmlns="http://www.w3.org/2000/svg">
<g clip-path="url(#clip0_97_11220)">
<g filter="url(#filter0_d_97_11220)">
<rect width="400" height="257" rx="28" fill="white"/>
</g>
<rect x="75" y="24" width="250" height="200" fill="white"/>
<path fill-rule="evenodd" clip-rule="evenodd" d="M138 158H229C229.515 158 230.017 157.944 230.5 157.839C230.983 157.944 231.485 158 232 158H284C287.866 158 291 154.866 291 151C291 147.134 287.866 144 284 144H278C274.134 144 271 140.866 271 137C271 133.134 274.134 130 278 130H297C300.866 130 304 126.866 304 123C304 119.134 300.866 116 297 116H275C278.866 116 282 112.866 282 109C282 105.134 278.866 102 275 102H211C214.866 102 218 98.866 218 95C218 91.134 214.866 88 211 88H154C150.134 88 147 91.134 147 95C147 98.866 150.134 102 154 102H114C110.134 102 107 105.134 107 109C107 112.866 110.134 116 114 116H139C142.866 116 146 119.134 146 123C146 126.866 142.866 130 139 130H99C95.134 130 92 133.134 92 137C92 140.866 95.134 144 99 144H138C134.134 144 131 147.134 131 151C131 154.866 134.134 158 138 158ZM301 158C304.866 158 308 154.866 308 151C308 147.134 304.866 144 301 144C297.134 144 294 147.134 294 151C294 154.866 297.134 158 301 158Z" fill="#0D3D4B" fill-opacity="0.2"/>
<path fill-rule="evenodd" clip-rule="evenodd" d="M161.28 163.124L157.21 163.696C155.022 164.003 153 162.479 152.692 160.292L141.558 81.0701C141.251 78.8824 142.775 76.8598 144.963 76.5523L223.194 65.5576C225.382 65.2502 227.404 66.7744 227.712 68.962C227.712 68.962 228.424 74.0274 228.669 75.7698" fill="white"/>
<path fill-rule="evenodd" clip-rule="evenodd" d="M163.807 158.714L160.111 159.239C158.125 159.521 156.291 158.14 156.015 156.154L146.019 84.2291C145.743 82.243 147.13 80.404 149.116 80.1216L220.154 70.0249C222.14 69.7426 223.975 71.1238 224.251 73.1099L225.109 79.2906C225.156 79.6251 228.224 101.825 234.315 145.889C234.621 148.102 233.095 150.146 230.907 150.455C230.884 150.459 230.86 150.462 230.837 150.465L163.807 158.714Z" fill="#E7ECED"/>
<path d="M161.28 163.124L157.21 163.696C155.022 164.003 153 162.479 152.692 160.292L141.558 81.0701C141.251 78.8824 142.775 76.8598 144.963 76.5523L223.194 65.5576C225.382 65.2502 227.404 66.7744 227.712 68.962C227.712 68.962 228.424 74.0274 228.669 75.7698" stroke="#0D3D4B" stroke-width="2.5" stroke-linecap="round"/>
<path d="M229.5 80.3789L230 83.4993" stroke="#0D3D4B" stroke-width="2.5" stroke-linecap="round"/>
<path d="M177.844 82.0402L256.411 90.2979C257.921 90.4567 259.017 91.8098 258.858 93.3203L250.496 172.882C250.337 174.393 248.984 175.488 247.474 175.33L168.906 167.072C167.396 166.913 166.3 165.56 166.459 164.049L174.821 84.4877C174.98 82.9772 176.333 81.8814 177.844 82.0402Z" fill="white" stroke="#0D3D4B" stroke-width="2.5"/>
<path fill-rule="evenodd" clip-rule="evenodd" d="M181.69 93.2531C181.864 91.6053 183.34 90.4099 184.987 90.5831L247.642 97.1684C249.29 97.3416 250.486 98.8178 250.312 100.466L244.772 153.175C244.599 154.823 243.123 156.018 241.475 155.845L178.82 149.26C177.173 149.087 175.977 147.611 176.15 145.963L181.69 93.2531Z" fill="white"/>
<path opacity="0.1" fill-rule="evenodd" clip-rule="evenodd" d="M184.739 133.877L194.536 127.269C196.17 126.167 198.363 126.419 199.704 127.863L206.877 135.586C207.235 135.972 207.831 136.014 208.24 135.683L223.579 123.253C225.427 121.756 228.166 122.192 229.457 124.189L239.438 139.626L240.871 142.018L240.185 150.143C240.137 150.704 239.637 151.115 239.078 151.053L182.115 144.724C181.573 144.664 181.18 144.181 181.23 143.638L181.985 135.44L184.739 133.877Z" fill="#0D3D4B"/>
<path d="M184.857 91.8263L247.512 98.4116C248.473 98.5126 249.17 99.3737 249.069 100.335L243.529 153.045C243.428 154.006 242.567 154.703 241.606 154.602L178.951 148.017C177.99 147.916 177.292 147.055 177.393 146.093L182.933 93.3838C183.034 92.4226 183.896 91.7252 184.857 91.8263Z" stroke="#0D3D4B" stroke-width="2.5"/>
<circle cx="197.031" cy="109.95" r="6" transform="rotate(6 197.031 109.95)" fill="#F3F7FF" stroke="#0D3D4B" stroke-width="2.5"/>
<path d="M182.728 135.424C186.665 132.706 194.537 127.269 194.537 127.269C196.171 126.167 198.364 126.419 199.705 127.863L206.879 135.586C207.237 135.971 207.832 136.013 208.241 135.682L223.581 123.253C225.297 121.862 227.816 122.126 229.207 123.842C229.296 123.953 229.38 124.069 229.458 124.189C229.458 124.189 238.426 138.419 240.522 141.745" stroke="#0D3D4B" stroke-width="2.5" stroke-linecap="round"/>
<path d="M150.885 229V214.1H153.005L161.205 225.14L160.105 225.36V214.1H162.825V229H160.685L152.605 217.88L153.605 217.66V229H150.885ZM170.81 229.24C169.743 229.24 168.77 228.993 167.89 228.5C167.023 228.007 166.33 227.333 165.81 226.48C165.303 225.627 165.05 224.653 165.05 223.56C165.05 222.467 165.303 221.493 165.81 220.64C166.33 219.787 167.023 219.113 167.89 218.62C168.756 218.127 169.73 217.88 170.81 217.88C171.876 217.88 172.843 218.127 173.71 218.62C174.576 219.113 175.263 219.787 175.77 220.64C176.29 221.48 176.55 222.453 176.55 223.56C176.55 224.653 176.29 225.627 175.77 226.48C175.25 227.333 174.556 228.007 173.69 228.5C172.823 228.993 171.863 229.24 170.81 229.24ZM170.81 226.84C171.396 226.84 171.91 226.7 172.35 226.42C172.803 226.14 173.156 225.753 173.41 225.26C173.676 224.753 173.81 224.187 173.81 223.56C173.81 222.92 173.676 222.36 173.41 221.88C173.156 221.387 172.803 221 172.35 220.72C171.91 220.427 171.396 220.28 170.81 220.28C170.21 220.28 169.683 220.427 169.23 220.72C168.776 221 168.416 221.387 168.15 221.88C167.896 222.36 167.77 222.92 167.77 223.56C167.77 224.187 167.896 224.753 168.15 225.26C168.416 225.753 168.776 226.14 169.23 226.42C169.683 226.7 170.21 226.84 170.81 226.84ZM182.091 229V218.12H184.711V229H182.091ZM182.091 216.9V214.1H184.711V216.9H182.091ZM187.13 229V218.12H189.59V220.64L189.31 220.22C189.51 219.433 189.91 218.847 190.51 218.46C191.11 218.073 191.817 217.88 192.63 217.88C193.523 217.88 194.31 218.113 194.99 218.58C195.67 219.047 196.11 219.66 196.31 220.42L195.57 220.48C195.903 219.613 196.403 218.967 197.07 218.54C197.737 218.1 198.503 217.88 199.37 217.88C200.143 217.88 200.83 218.053 201.43 218.4C202.043 218.747 202.523 219.233 202.87 219.86C203.217 220.473 203.39 221.187 203.39 222V229H200.77V222.62C200.77 222.14 200.683 221.727 200.51 221.38C200.337 221.033 200.097 220.767 199.79 220.58C199.483 220.38 199.11 220.28 198.67 220.28C198.257 220.28 197.89 220.38 197.57 220.58C197.25 220.767 197.003 221.033 196.83 221.38C196.657 221.727 196.57 222.14 196.57 222.62V229H193.95V222.62C193.95 222.14 193.863 221.727 193.69 221.38C193.517 221.033 193.27 220.767 192.95 220.58C192.643 220.38 192.277 220.28 191.85 220.28C191.437 220.28 191.07 220.38 190.75 220.58C190.43 220.767 190.183 221.033 190.01 221.38C189.837 221.727 189.75 222.14 189.75 222.62V229H187.13ZM208.907 229.24C208.147 229.24 207.487 229.113 206.927 228.86C206.367 228.607 205.933 228.247 205.627 227.78C205.32 227.3 205.167 226.747 205.167 226.12C205.167 225.52 205.3 224.987 205.567 224.52C205.833 224.04 206.247 223.64 206.807 223.32C207.367 223 208.073 222.773 208.927 222.64L212.487 222.06V224.06L209.427 224.58C208.907 224.673 208.52 224.84 208.267 225.08C208.013 225.32 207.887 225.633 207.887 226.02C207.887 226.393 208.027 226.693 208.307 226.92C208.6 227.133 208.96 227.24 209.387 227.24C209.933 227.24 210.413 227.127 210.827 226.9C211.253 226.66 211.58 226.333 211.807 225.92C212.047 225.507 212.167 225.053 212.167 224.56V221.76C212.167 221.293 211.98 220.907 211.607 220.6C211.247 220.28 210.767 220.12 210.167 220.12C209.607 220.12 209.107 220.273 208.667 220.58C208.24 220.873 207.927 221.267 207.727 221.76L205.587 220.72C205.8 220.147 206.133 219.653 206.587 219.24C207.053 218.813 207.6 218.48 208.227 218.24C208.853 218 209.533 217.88 210.267 217.88C211.16 217.88 211.947 218.047 212.627 218.38C213.307 218.7 213.833 219.153 214.207 219.74C214.593 220.313 214.787 220.987 214.787 221.76V229H212.307V227.14L212.867 227.1C212.587 227.567 212.253 227.96 211.867 228.28C211.48 228.587 211.04 228.827 210.547 229C210.053 229.16 209.507 229.24 208.907 229.24ZM222.488 233.4C221.675 233.4 220.922 233.267 220.228 233C219.535 232.733 218.935 232.36 218.428 231.88C217.935 231.413 217.575 230.86 217.348 230.22L219.788 229.3C219.948 229.807 220.262 230.213 220.728 230.52C221.208 230.84 221.795 231 222.488 231C223.022 231 223.488 230.9 223.888 230.7C224.302 230.5 224.622 230.207 224.848 229.82C225.075 229.447 225.188 228.993 225.188 228.46V225.98L225.688 226.58C225.315 227.233 224.815 227.727 224.188 228.06C223.562 228.393 222.848 228.56 222.048 228.56C221.035 228.56 220.128 228.327 219.328 227.86C218.528 227.393 217.902 226.753 217.448 225.94C216.995 225.127 216.768 224.213 216.768 223.2C216.768 222.173 216.995 221.26 217.448 220.46C217.902 219.66 218.522 219.033 219.308 218.58C220.095 218.113 220.988 217.88 221.988 217.88C222.802 217.88 223.515 218.053 224.128 218.4C224.755 218.733 225.275 219.22 225.688 219.86L225.328 220.52V218.12H227.808V228.46C227.808 229.407 227.575 230.253 227.108 231C226.655 231.747 226.028 232.333 225.228 232.76C224.442 233.187 223.528 233.4 222.488 233.4ZM222.368 226.14C222.928 226.14 223.415 226.02 223.828 225.78C224.255 225.527 224.588 225.18 224.828 224.74C225.068 224.3 225.188 223.793 225.188 223.22C225.188 222.66 225.062 222.16 224.808 221.72C224.568 221.267 224.235 220.913 223.808 220.66C223.395 220.407 222.915 220.28 222.368 220.28C221.822 220.28 221.328 220.407 220.888 220.66C220.448 220.913 220.102 221.267 219.848 221.72C219.608 222.16 219.488 222.66 219.488 223.22C219.488 223.78 219.608 224.28 219.848 224.72C220.102 225.16 220.442 225.507 220.868 225.76C221.308 226.013 221.808 226.14 222.368 226.14ZM235.415 229.24C234.295 229.24 233.315 228.987 232.475 228.48C231.635 227.973 230.982 227.287 230.515 226.42C230.048 225.553 229.815 224.593 229.815 223.54C229.815 222.447 230.048 221.48 230.515 220.64C230.995 219.787 231.642 219.113 232.455 218.62C233.282 218.127 234.202 217.88 235.215 217.88C236.068 217.88 236.815 218.02 237.455 218.3C238.108 218.58 238.662 218.967 239.115 219.46C239.568 219.953 239.915 220.52 240.155 221.16C240.395 221.787 240.515 222.467 240.515 223.2C240.515 223.387 240.502 223.58 240.475 223.78C240.462 223.98 240.428 224.153 240.375 224.3H231.975V222.3H238.895L237.655 223.24C237.775 222.627 237.742 222.08 237.555 221.6C237.382 221.12 237.088 220.74 236.675 220.46C236.275 220.18 235.788 220.04 235.215 220.04C234.668 220.04 234.182 220.18 233.755 220.46C233.328 220.727 233.002 221.127 232.775 221.66C232.562 222.18 232.482 222.813 232.535 223.56C232.482 224.227 232.568 224.82 232.795 225.34C233.035 225.847 233.382 226.24 233.835 226.52C234.302 226.8 234.835 226.94 235.435 226.94C236.035 226.94 236.542 226.813 236.955 226.56C237.382 226.307 237.715 225.967 237.955 225.54L240.075 226.58C239.862 227.1 239.528 227.56 239.075 227.96C238.622 228.36 238.082 228.673 237.455 228.9C236.842 229.127 236.162 229.24 235.415 229.24ZM246.641 229.24C245.481 229.24 244.468 228.967 243.601 228.42C242.748 227.86 242.161 227.107 241.841 226.16L243.801 225.22C244.081 225.833 244.468 226.313 244.961 226.66C245.468 227.007 246.028 227.18 246.641 227.18C247.121 227.18 247.501 227.073 247.781 226.86C248.061 226.647 248.201 226.367 248.201 226.02C248.201 225.807 248.141 225.633 248.021 225.5C247.915 225.353 247.761 225.233 247.561 225.14C247.375 225.033 247.168 224.947 246.941 224.88L245.161 224.38C244.241 224.113 243.541 223.707 243.061 223.16C242.595 222.613 242.361 221.967 242.361 221.22C242.361 220.553 242.528 219.973 242.861 219.48C243.208 218.973 243.681 218.58 244.281 218.3C244.895 218.02 245.595 217.88 246.381 217.88C247.408 217.88 248.315 218.127 249.101 218.62C249.888 219.113 250.448 219.807 250.781 220.7L248.781 221.64C248.595 221.147 248.281 220.753 247.841 220.46C247.401 220.167 246.908 220.02 246.361 220.02C245.921 220.02 245.575 220.12 245.321 220.32C245.068 220.52 244.941 220.78 244.941 221.1C244.941 221.3 244.995 221.473 245.101 221.62C245.208 221.767 245.355 221.887 245.541 221.98C245.741 222.073 245.968 222.16 246.221 222.24L247.961 222.76C248.855 223.027 249.541 223.427 250.021 223.96C250.515 224.493 250.761 225.147 250.761 225.92C250.761 226.573 250.588 227.153 250.241 227.66C249.895 228.153 249.415 228.54 248.801 228.82C248.188 229.1 247.468 229.24 246.641 229.24Z" fill="#0D3D4B"/>
</g>
<defs>
<filter id="filter0_d_97_11220" x="-23" y="-12" width="446" height="303" filterUnits="userSpaceOnUse" color-interpolation-filters="sRGB">
<feFlood flood-opacity="0" result="BackgroundImageFix"/>
<feColorMatrix in="SourceAlpha" type="matrix" values="0 0 0 0 0 0 0 0 0 0 0 0 0 0 0 0 0 0 127 0" result="hardAlpha"/>
<feOffset dy="11"/>
<feGaussianBlur stdDeviation="11.5"/>
<feColorMatrix type="matrix" values="0 0 0 0 0 0 0 0 0 0 0 0 0 0 0 0 0 0 0.1819 0"/>
<feBlend mode="normal" in2="BackgroundImageFix" result="effect1_dropShadow_97_11220"/>
<feBlend mode="normal" in="SourceGraphic" in2="effect1_dropShadow_97_11220" result="shape"/>
</filter>
<clipPath id="clip0_97_11220">
<rect width="400" height="257" rx="29" fill="white"/>
</clipPath>
</defs>
</svg>
